<svg xmlns="http://www.w3.org/2000/svg" width="32" height="32" id="alchohol">
  <path fill="#004463" stroke="#004463" stroke-linecap="round" stroke-linejoin="round" d="M10.5 1.5c-.277 0-.5.222-.5.5l.15.5H10c-.277 0-.5.222-.5.5v1c0 .276.223.5.5.5v5c0 .81-.334 1.526-.853 2.064-1.515.284-2.647 1.486-2.647 2.935v15c0 .554.496 1 1.112 1h7.777c.616 0 1.111-.446 1.111-1v-15c0-.199-.025-.392-.066-.58-.01-.048-.028-.092-.041-.138a2.771 2.771 0 0 0-.133-.389c-.028-.065-.064-.125-.098-.188a2.872 2.872 0 0 0-.177-.296 2.944 2.944 0 0 0-.145-.188 2.99 2.99 0 0 0-.672-.61c-.066-.044-.13-.091-.2-.132-.1-.057-.207-.105-.313-.152-.077-.035-.15-.074-.23-.104a3.553 3.553 0 0 0-.571-.158h-.002a3.082 3.082 0 0 1-.61-.912c-.022-.052-.037-.109-.056-.162a2.867 2.867 0 0 1-.12-.383A2.955 2.955 0 0 1 13 9.5v-5c.277 0 .5-.223.5-.5v-1c0-.277-.223-.5-.5-.5h-.15l.15-.5c0-.277-.223-.5-.5-.5h-2zm9 8c-.554 0-1 .445-1 1v8c0 .262.028.517.076.765.025.13.07.25.108.375.034.115.061.233.105.344.054.135.124.26.192.386.046.087.088.176.14.258.089.141.192.269.297.397.046.055.089.111.137.164.123.135.256.256.396.373.04.032.077.067.118.098.167.128.344.24.53.342a3.954 3.954 0 0 0 1.289.437c.038.01.075.016.112.02v6.04a1 1 0 0 1-1 1h-2c-.281.056-.5.223-.5.5s.223.5.5.5h7a.499.499 0 1 0 0-1h-2a1 1 0 0 1-1-1V22.45c.102-.013.21-.01.309-.03a3.953 3.953 0 0 0 1.055-.397c.012-.01.024-.015.037-.021a3.97 3.97 0 0 0 .53-.342c.042-.031.079-.065.118-.098.14-.117.274-.238.397-.373.048-.052.09-.11.136-.164.105-.129.209-.256.297-.397.053-.083.094-.17.14-.258.068-.127.139-.251.192-.386.045-.11.071-.229.106-.344.037-.125.082-.246.107-.375 0 0 0 0 0 0 .048-.247.076-.502.076-.764v-8c0-.554-.446-1-1-1h-6z"></path>
  <g transform="translate(.5 -1020.363)">
    <path fill="#eef2fa" d="M19 1029.862c-.554 0-1 .446-1 1v8a3.976 3.976 0 0 0 3.5 3.95v6.05a1 1 0 0 1-1 1h-2c-.282.056-.5.223-.5.5s.223.5.5.5h7a.499.499 0 1 0 0-1h-2a1 1 0 0 1-1-1v-6.05a3.976 3.976 0 0 0 3.5-3.95v-8c0-.554-.446-1-1-1h-6z"></path>
    <path fill="#eef2fa" d="M19 1029.862c-.554 0-1 .446-1 1v8c0 2.216 1.784 4 4 4s4-1.784 4-4v-8c0-.554-.446-1-1-1h-6z"></path>
    <path fill="#fff" d="M19.75 1031.87a.748.748 0 0 0-.75.75v6.242c0 1.662 1.338 3 3 3s3-1.338 3-3v-6.242a.748.748 0 0 0-.75-.75z"></path>
    <path fill="#f1f1f1" d="M24 1031.87v6.992a3.952 3.952 0 0 1-1.258 2.896 2.986 2.986 0 0 0 2.258-2.896v-6.242a.748.748 0 0 0-.75-.75H24z"></path>
    <path fill="#70bb57" d="M9.5 1022.862v7c0 .81-.334 1.527-.854 2.064-1.514.284-2.646 1.486-2.646 2.936v15c0 .554.496 1 1.111 1h7.778c.615 0 1.111-.446 1.111-1v-15c0-1.45-1.132-2.652-2.646-2.936a2.956 2.956 0 0 1-.854-2.064v-7h-3z"></path>
    <path fill="#52a44c" d="M11 1022.862v7c0 .889.39 1.676 1 2.225h1.5c-.61-.549-1-1.336-1-2.225v-7z"></path>
    <rect width="6" height="12" x="8" y="1035.862" fill="#eef2fa" rx="3.333" ry="3"></rect>
    <path fill="none" stroke="#c9d6e5" stroke-linecap="round" stroke-linejoin="round" d="M9.506 1039.362h2.988m-2.988 5h2.988"></path>
    <path fill="#d3e4f1" d="M23 1029.862c.554 0 1 .446 1 1v1.008h.25c.415 0 .75.334.75.75v6.242c0 1.404-.96 2.566-2.258 2.896a4.004 4.004 0 0 1-1.742.963c.321.083.652.141 1 .141 2.216 0 4-1.784 4-4v-8c0-.554-.446-1-1-1h-2z"></path>
    <path fill="#f8b545" d="M19 1033.862v5c0 1.662 1.338 3 3 3s3-1.338 3-3v-5z"></path>
    <circle cx="20" cy="1036.362" r=".5" fill="#fecb5b"></circle>
    <circle cx="23.5" cy="1037.362" r=".5" fill="#fecb5b"></circle>
    <circle cx="21" cy="1039.362" r=".5" fill="#fecb5b"></circle>
    <circle cx="23.5" cy="1040.362" r=".5" fill="#fecb5b"></circle>
    <circle cx="22.5" cy="1035.362" r=".5" fill="#fecb5b"></circle>
    <path fill="#52a44c" d="M10.666 1031.862c1.847 0 3.334 1.338 3.334 3v15c0 .554-.496 1-1.111 1h2c.615 0 1.111-.446 1.111-1v-15c0-1.662-1.487-3-3.334-3h-2z"></path>
    <path fill="#f8b545" d="M10 1021.862h2c.277 0 .5.223.5.5l-.3 1c-.08.266-.223.5-.5.5h-1.4c-.277 0-.42-.234-.5-.5l-.3-1c0-.277.223-.5.5-.5z"></path>
    <path fill="#f8a345" d="M11 1021.862c.277 0 .5.223.5.5l-.301 1c-.08.266-.223.5-.5.5h1c.277 0 .42-.234.5-.5l.3-1c0-.277-.222-.5-.5-.5h-1z"></path>
    <path fill="#fecb5b" d="M9.5 1022.862c-.277 0-.5.223-.5.5v1c0 .277.223.5.5.5v4c0 .554.446 1 1 1h1c.554 0 1-.446 1-1v-4c.277 0 .5-.223.5-.5v-1c0-.277-.223-.5-.5-.5h-3z"></path>
    <path fill="#f8b545" d="M11.5 1022.862c.277 0 .5.223.5.5v1c0 .277-.223.5-.5.5v4c0 .554-.446 1-1 1h1c.554 0 1-.446 1-1v-4c.277 0 .5-.223.5-.5v-1c0-.277-.223-.5-.5-.5h-1z"></path>
    <path fill="#f8a345" d="M24 1033.862v5a3.952 3.952 0 0 1-1.258 2.896 2.986 2.986 0 0 0 2.258-2.896v-5h-1z"></path>
    <path fill="#d3e4f1" d="M23.5 1049.862a.499.499 0 1 1 0 1h2a.499.499 0 1 0 0-1h-2z"></path>
  </g>
</svg>
