<svg xmlns="http://www.w3.org/2000/svg" width="32" height="32" id="bell">
  <path fill="#004463" stroke="#004463" d="M86.16 1111.189c-.172 0-.337.035-.492.09h-.008a1.505 1.505 0 0 0-.998 1.383c-.603-.218-1.13-.417-1.271-.455a.577.577 0 0 0-.633.252 2.21 2.21 0 0 0-.598 1.506c0 .22.042.44.108.654a5.979 5.979 0 0 0-2.108 4.568v6a1 1 0 0 1-1 1c-.554 0-1 .446-1 1s.446 1 1 1h5.27a2 2 0 0 0-.27 1 2 2 0 0 0 1.506 1.936 2 2 0 0 0 .008 0 2 2 0 0 0 .162.035 2 2 0 0 0 .059.01 2 2 0 0 0 .113.012 2 2 0 0 0 .152.01 2 2 0 0 0 .18-.01 2 2 0 0 0 .096-.014 2 2 0 0 0 .084-.012 2 2 0 0 0 .105-.023 2 2 0 0 0 .127-.033 2 2 0 0 0 .031-.012 2 2 0 0 0 .157-.057 2 2 0 0 0 .046-.023 2 2 0 0 0 .102-.05 2 2 0 0 0 .092-.05 2 2 0 0 0 .11-.068 2 2 0 0 0 .038-.03 2 2 0 0 0 .102-.075 2 2 0 0 0 .23-.225 2 2 0 0 0 .043-.049 2 2 0 0 0 .108-.142 2 2 0 0 0 .011-.018 2 2 0 0 0 .063-.102 2 2 0 0 0 .04-.072 2 2 0 0 0 .05-.101 2 2 0 0 0 .039-.09 2 2 0 0 0 .031-.084 2 2 0 0 0 .031-.092 2 2 0 0 0 .026-.098 2 2 0 0 0 .025-.118 2 2 0 0 0 .008-.057 2 2 0 0 0 .018-.14 2 2 0 0 0 .008-.158 2 2 0 0 0-.008-.157 2 2 0 0 0-.016-.14 2 2 0 0 0-.01-.062 2 2 0 0 0-.023-.1 2 2 0 0 0-.034-.131 2 2 0 0 0-.017-.051 2 2 0 0 0-.04-.106 2 2 0 0 0-.044-.103 2 2 0 0 0-.04-.078 2 2 0 0 0-.038-.072h5.27a.998.998 0 0 0 .921-1.389 1 1 0 0 0-.922-.611 1 1 0 0 1-.1 0 1 1 0 0 1-.683-.373 1 1 0 0 1-.107-.166 1 1 0 0 1-.108-.381 1 1 0 0 1-.002-.07v-6a5.974 5.974 0 0 0-2.107-4.568c.065-.213.107-.434.107-.655a2.21 2.21 0 0 0-.597-1.505.576.576 0 0 0-.633-.252c-.143.038-.67.237-1.272.455a1.48 1.48 0 0 0-.117-.555 1.521 1.521 0 0 0-.322-.477 1.496 1.496 0 0 0-1.059-.441zm0 1a.493.493 0 0 1 .291.898 1.132 1.132 0 0 0-.33-.049 1.132 1.132 0 0 0-.273.035.489.489 0 0 1-.188-.384c0-.282.218-.5.5-.5z" color="#000" font-family="sans-serif" font-weight="400" overflow="visible" style="line-height:normal;text-indent:0;text-align:start;text-decoration-line:none;text-decoration-style:solid;text-decoration-color:#000;text-transform:none;block-progression:tb;white-space:normal;isolation:auto;mix-blend-mode:normal;solid-color:#000;solid-opacity:1" transform="translate(-70.66 -1105.69)"></path>
  <g transform="translate(-.5 -1020.862)">
    <path fill="#fecb5b" d="M16 1026.361c-.823 0-1.5.678-1.5 1.5 0 .823.677 1.5 1.5 1.5s1.5-.677 1.5-1.5c0-.822-.677-1.5-1.5-1.5zm0 1c.282 0 .5.218.5.5 0 .282-.218.5-.5.5a.493.493 0 0 1-.5-.5c0-.282.218-.5.5-.5z" color="#000" font-family="sans-serif" font-weight="400" overflow="visible" style="line-height:normal;text-indent:0;text-align:start;text-decoration-line:none;text-decoration-style:solid;text-decoration-color:#000;text-transform:none;block-progression:tb;white-space:normal;isolation:auto;mix-blend-mode:normal;solid-color:#000;solid-opacity:1"></path>
    <path fill="#f8b545" d="M16 6a1.47 1.47 0 0 0-.5.092c.579.208 1 .761 1 1.408 0 .647-.421 1.198-1 1.406.157.057.324.094.5.094.823 0 1.5-.678 1.5-1.5S16.823 6 16 6Z" color="#000" font-family="sans-serif" font-weight="400" overflow="visible" style="line-height:normal;text-indent:0;text-align:start;text-decoration-line:none;text-decoration-style:solid;text-decoration-color:#000;text-transform:none;block-progression:tb;white-space:normal;isolation:auto;mix-blend-mode:normal;solid-color:#000;solid-opacity:1" transform="translate(0 1020.362)"></path>
    <path fill="#fecb5b" d="M18 1044.362a2 2 0 0 1-2 2 2 2 0 0 1-2-2 2 2 0 0 1 2-2 2 2 0 0 1 2 2z"></path>
    <path fill="#f8b545" d="M16 1042.362a2 2 0 0 0-.504.064 2 2 0 0 1 1.504 1.936 2 2 0 0 1-1.496 1.936 2 2 0 0 0 .496.064 2 2 0 0 0 2-2 2 2 0 0 0-2-2Z"></path>
    <path fill="#fecb5b" d="M16 1028.362c-3.324 0-6 2.676-6 6v6a1 1 0 0 1-1 1v1h14v-1a1 1 0 0 1-1-1v-6c0-3.324-2.676-6-6-6Z"></path>
    <path fill="#f8b545" d="M16 1028.362c-.342 0-.674.036-1 .09a5.98 5.98 0 0 1 5 5.91v6a1 1 0 0 0 1 1v1h2v-1a1 1 0 0 1-1-1v-6c0-3.324-2.676-6-6-6Z"></path>
    <rect width="16" height="2" x="8" y="1041.362" fill="#f8b545" rx="1" ry="1"></rect>
    <g transform="translate(8 416.87)scale(.57143)">
      <path fill="#ed4a4b" d="M8.139 1074.223a3.877 3.877 0 0 1-1.139-2.75c0-.995.38-1.99 1.139-2.75l5.861 1.408v2.717c-1.954.459-5.444 1.792-5.861 1.375zM19.861 1074.223a3.877 3.877 0 0 0 1.139-2.75c0-.995-.38-1.99-1.139-2.75L14 1070.131v2.717c1.954.459 5.444 1.792 5.861 1.375z"></path>
      <path fill="#d7343e" d="M11.914 1070.544a1 1 0 0 0-.9.656c-.442 1.216-.9 2.127-1.52 2.932.687-.135 1.637-.419 2.605-.713.108-.21.216-.418.313-.637l.654.246c-.018.043-.044.082-.062.125.497-.147.99-.292 1.396-.387v-1.37l-2.094-.79a1 1 0 0 0-.392-.062z" color="#000" font-family="sans-serif" font-weight="400" overflow="visible" style="line-height:normal;text-indent:0;text-align:start;text-decoration-line:none;text-decoration-style:solid;text-decoration-color:#000;text-transform:none;block-progression:tb;white-space:normal;isolation:auto;mix-blend-mode:normal;solid-color:#000;solid-opacity:1"></path>
      <path fill="#ed4a4b" d="m11.553 1071.623 2.484.935c-.89 2.302-1.501 3.668-4.553 5.804l-.232-1.36-2.252.426c2.424-1.683 3.601-3.182 4.553-5.805z" color="#000" overflow="visible" style="isolation:auto;mix-blend-mode:normal;solid-color:#000;solid-opacity:1"></path>
      <path fill="#d7343e" d="M14 1070.13s4.832.376 5.374.231a1.017 1.017 0 0 0-.526-1.964c-.542.145-4.848 1.734-4.848 1.734zM14 1070.13s-4.832.376-5.374.231a1.017 1.017 0 0 1 .526-1.964c.542.145 4.848 1.734 4.848 1.734z"></path>
      <path fill="#d7343e" d="M11.553 51.262c-.142.391-.292.751-.448 1.097a2.992 2.992 0 0 0 1.993 1.953c.312-.567.568-1.184.834-1.865h-.002a.958.958 0 0 1-.912-.635l-1.465-.55z" color="#000" font-family="sans-serif" font-weight="400" overflow="visible" style="line-height:normal;text-indent:0;text-align:start;text-decoration-line:none;text-decoration-style:solid;text-decoration-color:#000;text-transform:none;block-progression:tb;white-space:normal;isolation:auto;mix-blend-mode:normal;solid-color:#000;solid-opacity:1" transform="translate(0 1020.362)"></path>
      <path fill="#d7343e" d="M15.924 1070.497a1 1 0 0 1 .9.656c.442 1.216.9 2.127 1.52 2.932-.687-.135-1.637-.419-2.606-.713-.107-.21-.216-.418-.312-.637l-.655.246c.018.043.044.082.063.125a27.189 27.189 0 0 0-1.396-.386v-1.372l2.093-.789a1 1 0 0 1 .393-.062z" color="#000" font-family="sans-serif" font-weight="400" overflow="visible" style="line-height:normal;text-indent:0;text-align:start;text-decoration-line:none;text-decoration-style:solid;text-decoration-color:#000;text-transform:none;block-progression:tb;white-space:normal;isolation:auto;mix-blend-mode:normal;solid-color:#000;solid-opacity:1"></path>
      <path fill="#ed4a4b" d="m16.447 1071.623-2.484.935c.89 2.302 1.501 3.668 4.553 5.804l.232-1.36 2.252.426c-2.424-1.683-3.601-3.182-4.553-5.805z" color="#000" overflow="visible" style="isolation:auto;mix-blend-mode:normal;solid-color:#000;solid-opacity:1"></path>
      <path fill="#d7343e" d="m16.447 51.262-1.627.611a.949.949 0 0 1-.763.549c.264.677.52 1.287.826 1.851a3 3 0 0 0 1.93-2.09 16.483 16.483 0 0 1-.366-.921z" color="#000" font-family="sans-serif" font-weight="400" overflow="visible" style="line-height:normal;text-indent:0;text-align:start;text-decoration-line:none;text-decoration-style:solid;text-decoration-color:#000;text-transform:none;block-progression:tb;white-space:normal;isolation:auto;mix-blend-mode:normal;solid-color:#000;solid-opacity:1" transform="translate(0 1020.362)"></path>
      <path fill="#d7343e" d="M14 1070.132s-1.274.097-2.59.173c-.276.447-.45.962-.45 1.522 0 .643.216 1.236.57 1.724.881-.267 1.77-.539 2.47-.703.67.158 1.516.415 2.361.672.338-.482.54-1.066.54-1.693 0-.562-.176-1.08-.454-1.53-1.254-.075-2.447-.165-2.447-.165Zm-.07.705c.558 0 .99.431.99.99 0 .558-.432.99-.99.99a.974.974 0 0 1-.989-.99c0-.559.43-.99.989-.99z"></path>
      <circle cx="13.931" cy="1071.828" r="1.98" fill="#ed4a4b" color="#000" overflow="visible" style="isolation:auto;mix-blend-mode:normal;solid-color:#000;solid-opacity:1"></circle>
    </g>
    <path fill="#f8a345" d="M21 1041.362c.554 0 1 .446 1 1s-.446 1-1 1h2c.554 0 1-.446 1-1s-.446-1-1-1h-2z"></path>
  </g>
</svg>
