<svg xmlns="http://www.w3.org/2000/svg" width="32" height="32" id="bonbon">
  <g color="#000" font-family="sans-serif" font-weight="400">
    <path fill="#004463" stroke="#004463" stroke-linecap="round" stroke-linejoin="round" d="M-642.697 1711.02a4.549 4.549 0 0 0-.767.118c-.074.017-.146.042-.22.062-.188.054-.375.12-.558.2-.065.027-.13.053-.195.085-.243.119-.48.253-.703.418a4.557 4.557 0 0 0-1.676 2.477l-.006.02c-.07.262-.118.527-.14.797 0 0 0 0 0 0s0 0 0 0a4.34 4.34 0 0 0 .066 1.296c.062.28.152.553.271.819 0 0 0 0 0 0 .12.266.27.523.45.767l.931 1.264.022.029a1.5 1.5 0 0 0 .021.027 1.5 1.5 0 0 0 .059.072 1.5 1.5 0 0 1 .002 0 1.5 1.5 0 0 0 .017.018 1.5 1.5 0 0 0 .006.01 1.5 1.5 0 0 0 .006.01 1.5 1.5 0 0 0 .028.027 1.5 1.5 0 0 0 .033.035 1.5 1.5 0 0 0 .03.027 1.5 1.5 0 0 0 .04.037 1.5 1.5 0 0 0 .006 0 1.5 1.5 0 0 0 .037.031 1.5 1.5 0 0 0 .037.027 1.5 1.5 0 0 0 .024.018 1.5 1.5 0 0 0 .103.068 1.5 1.5 0 0 0 .026.014 1.5 1.5 0 0 0 .11.057 1.5 1.5 0 0 0 .013.01 1.5 1.5 0 0 0 1.816-2.27l-.95-1.293c-.082-.11-.138-.23-.18-.353 0 0 0 0 0 0a1.332 1.332 0 0 1 .001-.866c.046-.133.115-.262.204-.385l.03-.039a1.71 1.71 0 0 1 .901-.615c.094-.026.189-.044.281-.05.35-.027.681.081.942.292.086.07.166.146.234.238l.375.508 1.797 2.44 1.313 1.78-1.557 2.11-.235.32-1.648 2.237-1.797 2.438h-.002l-.236.32-1.649 2.238-.029.041a1.5 1.5 0 0 0 1.434 2.387 1.5 1.5 0 0 0 .004 0 1.5 1.5 0 0 0 .517-.188 1.5 1.5 0 0 0 .053-.033 1.5 1.5 0 0 0 .035-.024 1.5 1.5 0 0 0 .094-.068 1.5 1.5 0 0 0 .03-.025 1.5 1.5 0 0 0 .075-.068 1.5 1.5 0 0 0 .033-.037 1.5 1.5 0 0 0 .069-.074 1.5 1.5 0 0 0 .07-.09l.65-.88 1.397-1.895.49-.664h-.002l1.797-2.438h.002l1.317-1.787.236-.322.33-.447.385-.522.385.522 1.882 2.556h.002l1.797 2.438h-.002l1.887 2.558.65.881a1.5 1.5 0 0 0 .07.09 1.5 1.5 0 0 0 .069.074 1.5 1.5 0 0 0 .033.037 1.5 1.5 0 0 0 .076.068 1.5 1.5 0 0 0 .038.031 1.5 1.5 0 0 0 .085.062 1.5 1.5 0 0 0 .036.024 1.5 1.5 0 0 0 .052.033 1.5 1.5 0 0 0 .522.188 1.5 1.5 0 0 0 .011 0 1.5 1.5 0 0 0 1.422-2.389l-.029-.04-1.648-2.239-.237-.32h-.002l-1.797-2.438-1.882-2.557h-.002l-1.555-2.109 1.312-1.781 1.797-2.44.375-.507c.07-.094.15-.172.238-.243.26-.208.59-.315.938-.289h.002c.092.01.186.025.28.051h.001a1.704 1.704 0 0 1 .899.616l.03.039c.09.122.159.25.204.384l.006.022a1.337 1.337 0 0 1-.184 1.2l-.95 1.292a1.5 1.5 0 0 0-.306.907 1.5 1.5 0 0 0 2.127 1.361 1.5 1.5 0 0 0 .008 0 1.5 1.5 0 0 0 .125-.064 1.5 1.5 0 0 0 .01-.01 1.5 1.5 0 0 0 .116-.076 1.5 1.5 0 0 0 .011-.01 1.5 1.5 0 0 0 .024-.016 1.5 1.5 0 0 0 .021-.018 1.5 1.5 0 0 0 .03-.025 1.5 1.5 0 0 0 .006 0 1.5 1.5 0 0 0 .056-.05 1.5 1.5 0 0 0 .002 0 1.5 1.5 0 0 0 .012-.01 1.5 1.5 0 0 0 .006-.01 1.5 1.5 0 0 0 .027-.03 1.5 1.5 0 0 0 .028-.027 1.5 1.5 0 0 0 .029-.03 1.5 1.5 0 0 0 .002 0 1.5 1.5 0 0 0 .006-.01 1.5 1.5 0 0 0 .053-.067 1.5 1.5 0 0 0 .006-.01 1.5 1.5 0 0 0 .015-.02l.022-.027.931-1.264c.18-.244.33-.503.45-.77.07-.157.11-.32.16-.483.034-.113.086-.22.111-.334.035-.157.04-.318.057-.477.029-.274.032-.546.01-.82 0 0 0 0 0 0s0 0 0 0a4.486 4.486 0 0 0-.141-.797l-.002-.01-.004-.01s0 0 0 0a4.55 4.55 0 0 0-.287-.766 4.539 4.539 0 0 0-1.389-1.709c-.223-.165-.46-.299-.703-.418-.064-.032-.13-.058-.195-.086a4.587 4.587 0 0 0-.559-.199c-.073-.02-.145-.045-.219-.062a4.59 4.59 0 0 0-.767-.117c-.268-.016-.538 0-.803.027a4.37 4.37 0 0 0-1.736.592h-.002c-.044.026-.083.06-.125.092a4.162 4.162 0 0 0-.668.539 3.983 3.983 0 0 0-.434.474l-.994 1.35-1.795 2.437h-.002 0l-.14.19-.141-.192h-.002l-1.795-2.437-.994-1.35a4.061 4.061 0 0 0-.568-.62 4.178 4.178 0 0 0-.659-.485h-.002a4.374 4.374 0 0 0-1.736-.592 4.887 4.887 0 0 0-.803-.027z" overflow="visible" style="line-height:normal;text-indent:0;text-align:start;text-decoration-line:none;text-decoration-style:solid;text-decoration-color:#000;text-transform:none;block-progression:tb;white-space:normal;isolation:auto;mix-blend-mode:normal;solid-color:#000;solid-opacity:1" transform="translate(652.482 -1705.518)"></path>
    <path fill="#eef2fa" d="M23.04 1026.05c-2.105-1.215-4.864-.576-6.079 1.527l-10.069 17.44a1.5 1.5 0 1 0 2.598 1.5l10.07-17.44c.37-.64 1.205-.876 1.98-.429.774.447.987 1.288.618 1.929l-.803 1.39a1.5 1.5 0 1 0 2.598 1.5l.803-1.39c1.214-2.103.387-4.812-1.717-6.027z" overflow="visible" style="line-height:normal;text-indent:0;text-align:start;text-decoration-line:none;text-decoration-style:solid;text-decoration-color:#000;text-transform:none;block-progression:tb;white-space:normal;isolation:auto;mix-blend-mode:normal;solid-color:#000;solid-opacity:1" transform="scale(-1 1)rotate(6.393 9136.568 244.53)"></path>
    <path fill="#d3e4f1" d="M20.512 5.082a4.567 4.567 0 0 0-.793.117c.453.098.901.247 1.32.489 2.104 1.214 2.931 3.923 1.717 6.027l-.803 1.39a1.5 1.5 0 0 1-.308.383 1.5 1.5 0 0 0 2.308-.383l.803-1.39c1.214-2.104.387-4.813-1.717-6.027a4.57 4.57 0 0 0-2.527-.606ZM18.67 8.057c-.466.016-.88.257-1.111.658L7.49 26.156a1.5 1.5 0 0 1-.308.383 1.5 1.5 0 0 0 2.308-.383L19.56 8.715c.058-.101.131-.188.21-.268a1.793 1.793 0 0 0-.23-.162 1.623 1.623 0 0 0-.87-.228Z" overflow="visible" style="line-height:normal;text-indent:0;text-align:start;text-decoration-line:none;text-decoration-style:solid;text-decoration-color:#000;text-transform:none;block-progression:tb;white-space:normal;isolation:auto;mix-blend-mode:normal;solid-color:#000;solid-opacity:1" transform="scale(-1 1)rotate(6.393 1.3 -265.652)"></path>
    <path fill="#ed4a4b" fill-rule="evenodd" d="m24.609 1027.593-6.552-1.25a4.18 4.18 0 0 0-1.096 1.235l-.838 1.451 3.12.595.316-.546c.37-.64 1.205-.876 1.98-.43.632.366.883.992.756 1.558l2.928.558a4.414 4.414 0 0 0-.614-3.17zm-.639 5.845-2.816-.537a1.5 1.5 0 0 0 2.799.567l.017-.03zm-6.241-1.19-3.12-.596-1.588 2.75 3.12.596 1.588-2.75zm-3 5.196-3.12-.595-1.588 2.75 3.12.595 1.588-2.75zm-3.102 5.373-3.121-.595-1.589 2.752 3.12.595 1.59-2.752z" overflow="visible" style="line-height:normal;text-indent:0;text-align:start;text-decoration-line:none;text-decoration-style:solid;text-decoration-color:#000;text-transform:none;block-progression:tb;white-space:normal;isolation:auto;mix-blend-mode:normal;solid-color:#000;solid-opacity:1" transform="scale(-1 1)rotate(6.393 9136.568 244.53)"></path>
    <path fill="#d7343e" fill-rule="evenodd" d="M18.057 5.98c-.123.094-.23.21-.344.317l4.896.933c.525.839.747 1.821.649 2.797l1.965.375a4.415 4.415 0 0 0-.614-3.172l-6.552-1.25zm.613 2.077c-.466.016-.88.257-1.111.658l-.118.203 1.803.344.315-.547c.055-.096.124-.18.199-.256-.072-.058-.133-.122-.219-.172-.29-.168-.59-.24-.87-.23zm-4.06 3.234-.198.344 1.317.25-1.391 2.406 1.803.344 1.588-2.75-3.12-.594zm6.544 1.248a1.5 1.5 0 0 0 .104.4l.71.137-.015.03a1.5 1.5 0 0 1-.307.38 1.5 1.5 0 0 0 2.307-.38l.016-.03-2.815-.537zm-9.545 3.947-.199.344 1.319.252-1.39 2.406 1.802.344 1.588-2.75-3.12-.596zM8.506 21.86l-.2.344 1.321.252-1.39 2.408 1.8.344 1.59-2.752-3.121-.596z" overflow="visible" style="line-height:normal;text-indent:0;text-align:start;text-decoration-line:none;text-decoration-style:solid;text-decoration-color:#000;text-transform:none;block-progression:tb;white-space:normal;isolation:auto;mix-blend-mode:normal;solid-color:#000;solid-opacity:1" transform="scale(-1 1)rotate(6.393 1.3 -265.652)"></path>
    <path fill="#eef2fa" d="M23.04 1026.05c-2.105-1.215-4.864-.576-6.079 1.527l-10.069 17.44a1.5 1.5 0 1 0 2.598 1.5l10.07-17.44c.37-.64 1.205-.876 1.98-.429.774.447.987 1.288.618 1.929l-.803 1.39a1.5 1.5 0 1 0 2.598 1.5l.803-1.39c1.214-2.103.387-4.812-1.717-6.027z" overflow="visible" style="line-height:normal;text-indent:0;text-align:start;text-decoration-line:none;text-decoration-style:solid;text-decoration-color:#000;text-transform:none;block-progression:tb;white-space:normal;isolation:auto;mix-blend-mode:normal;solid-color:#000;solid-opacity:1" transform="rotate(6.393 9153.05 539.06)"></path>
    <path fill="#d3e4f1" d="M20.512 5.082a4.567 4.567 0 0 0-.793.117c.453.098.901.247 1.32.489 2.104 1.214 2.931 3.923 1.717 6.027l-.803 1.39a1.5 1.5 0 0 1-.308.383 1.5 1.5 0 0 0 2.308-.383l.803-1.39c1.214-2.104.387-4.813-1.717-6.027a4.57 4.57 0 0 0-2.527-.606ZM18.67 8.057c-.466.016-.88.257-1.111.658L7.49 26.156a1.5 1.5 0 0 1-.308.383 1.5 1.5 0 0 0 2.308-.383L19.56 8.715c.058-.101.131-.188.21-.268a1.793 1.793 0 0 0-.23-.162 1.623 1.623 0 0 0-.87-.228Z" overflow="visible" style="line-height:normal;text-indent:0;text-align:start;text-decoration-line:none;text-decoration-style:solid;text-decoration-color:#000;text-transform:none;block-progression:tb;white-space:normal;isolation:auto;mix-blend-mode:normal;solid-color:#000;solid-opacity:1" transform="rotate(6.393 17.781 28.879)"></path>
    <path fill="#ed4a4b" fill-rule="evenodd" d="m24.609 1027.593-6.552-1.25a4.18 4.18 0 0 0-1.096 1.235l-.838 1.451 3.12.595.316-.546c.37-.64 1.205-.876 1.98-.43.632.366.883.992.756 1.558l2.928.558a4.414 4.414 0 0 0-.614-3.17zm-.639 5.845-2.816-.537a1.5 1.5 0 0 0 2.799.567l.017-.03zm-6.241-1.19-3.12-.596-1.588 2.75 3.12.596 1.588-2.75zm-3 5.196-3.12-.595-1.588 2.75 3.12.595 1.588-2.75zm-3.102 5.373-3.121-.595-1.589 2.752 3.12.595 1.59-2.752z" overflow="visible" style="line-height:normal;text-indent:0;text-align:start;text-decoration-line:none;text-decoration-style:solid;text-decoration-color:#000;text-transform:none;block-progression:tb;white-space:normal;isolation:auto;mix-blend-mode:normal;solid-color:#000;solid-opacity:1" transform="rotate(6.393 9153.05 539.06)"></path>
    <path fill="#d7343e" fill-rule="evenodd" d="M18.057 5.98c-.123.094-.23.21-.344.317l4.896.933c.525.839.747 1.821.649 2.797l1.965.375a4.415 4.415 0 0 0-.614-3.172l-6.552-1.25zm.613 2.077c-.466.016-.88.257-1.111.658l-.118.203 1.803.344.315-.547c.055-.096.124-.18.199-.256-.072-.058-.133-.122-.219-.172-.29-.168-.59-.24-.87-.23zm-4.06 3.234-.198.344 1.317.25-1.391 2.406 1.803.344 1.588-2.75-3.12-.594zm6.544 1.248a1.5 1.5 0 0 0 .104.4l.71.137-.015.03a1.5 1.5 0 0 1-.307.38 1.5 1.5 0 0 0 2.307-.38l.016-.03-2.815-.537zm-9.545 3.947-.199.344 1.319.252-1.39 2.406 1.802.344 1.588-2.75-3.12-.596zM8.506 21.86l-.2.344 1.321.252-1.39 2.408 1.8.344 1.59-2.752-3.121-.596z" overflow="visible" style="line-height:normal;text-indent:0;text-align:start;text-decoration-line:none;text-decoration-style:solid;text-decoration-color:#000;text-transform:none;block-progression:tb;white-space:normal;isolation:auto;mix-blend-mode:normal;solid-color:#000;solid-opacity:1" transform="rotate(6.393 17.781 28.879)"></path>
  </g>
</svg>
