<svg xmlns="http://www.w3.org/2000/svg" width="32" height="32" id="christmas">
  <path fill="#b48966" stroke="#004463" stroke-linecap="round" stroke-linejoin="round" stroke-width=".97" d="M16 .486c-.063 0-.384.93-.435.967-.054.04-1.07.078-1.093.14-.022.06.764.656.784.716.02.064-.255 1.041-.203 1.082.005 0 .075-.044.095-.052l-3.932 6.116a.485.485 0 0 0 0 .485.485.485 0 0 0 .42.242h1.377l-3.71 5.77a.679.679 0 0 0 0 .68.679.679 0 0 0 .587.338h1.023L7.39 22.45a.873.873 0 0 0 0 .873.873.873 0 0 0 .756.435h5.915v7.758h3.879v-7.758h5.914a.873.873 0 0 0 .756-.435.873.873 0 0 0 0-.874l-3.523-5.479h1.023a.679.679 0 0 0 .587-.339.679.679 0 0 0 0-.68l-3.71-5.769h1.377a.485.485 0 0 0 .42-.242.485.485 0 0 0 0-.485L16.86 3.35a.46.46 0 0 0 .081.044c.053-.036-.233-.98-.214-1.04.02-.063.818-.692.8-.756-.018-.061-1.002-.08-1.053-.117-.054-.04-.408-.993-.474-.995z"></path>
  <g transform="translate(540.608 -1355.772)scale(.9697)">
    <path fill="#b48966" d="M-543 1420.636h4v10h-4z"></path>
    <path fill="#91ca60" d="M-541 1408.236a.9.9 0 0 0-.78.45l-8.1 12.6a.9.9 0 0 0 0 .9.9.9 0 0 0 .78.45h16.2a.9.9 0 0 0 .779-.45.9.9 0 0 0 0-.9l-8.1-12.6a.9.9 0 0 0-.78-.45z"></path>
    <path fill="#8a6845" d="M-543 1422.089v1.472h2c.554 0 1 .446 1 1v6.075h1v-8.547h-4z"></path>
    <path fill="#70bb57" d="M-541 1408.235a.9.9 0 0 0-.672.305l7.55 11.746a.9.9 0 0 1 0 .9.9.9 0 0 1-.778.45H-549.992a.9.9 0 0 0 .113.55.9.9 0 0 0 .78.45H-532.9a.9.9 0 0 0 .779-.45.9.9 0 0 0 0-.9l-8.1-12.6a.9.9 0 0 0-.779-.45Z"></path>
    <path fill="#91ca60" d="M-541.034 1404.437a.7.7 0 0 0-.572.35l-6.3 9.798a.7.7 0 0 0 0 .701.7.7 0 0 0 .605.35H-534.7a.7.7 0 0 0 .606-.35.7.7 0 0 0 0-.7l-6.3-9.8a.7.7 0 0 0-.606-.35.7.7 0 0 0-.034 0z"></path>
    <path fill="#70bb57" d="M-541.033 1404.436a.7.7 0 0 0-.572.35l-.15.232 5.46 8.492a.7.7 0 0 1 0 .702.7.7 0 0 1-.605.35h-10.991l-.015.023a.7.7 0 0 0 0 .7.7.7 0 0 0 .605.35H-534.7a.7.7 0 0 0 .606-.35.7.7 0 0 0 0-.7l-6.3-9.8a.7.7 0 0 0-.606-.349.7.7 0 0 0-.033 0z"></path>
    <circle cx="-544" cy="1411.136" r=".5" fill="#ed4a4b"></circle>
    <circle cx="-537.5" cy="1413.862" r=".5" fill="#ff9a00"></circle>
    <circle cx="-540.5" cy="1412.362" r=".5" fill="#3a90cd"></circle>
    <circle cx="-545.5" cy="1414.136" r=".5" fill="#70bb57"></circle>
    <circle cx="-537.5" cy="1418.136" r=".5" fill="#3a90cd"></circle>
    <circle cx="-545.5" cy="1418.136" r=".5" fill="#ed4a4b"></circle>
    <circle cx="-540.5" cy="1420.136" r=".5" fill="#70bb57"></circle>
    <circle cx="-535.5" cy="1420.862" r=".5" fill="#ff9a00"></circle>
    <circle cx="-547.5" cy="1421.136" r=".5" fill="#3a90cd"></circle>
    <path fill="#91ca60" d="M-541.024 1400.636a.5.5 0 0 0-.41.25l-4.5 7a.5.5 0 0 0 0 .5.5.5 0 0 0 .434.25h9a.5.5 0 0 0 .433-.25.5.5 0 0 0 0-.5l-4.5-7a.5.5 0 0 0-.433-.25.5.5 0 0 0-.024 0z"></path>
    <path fill="#70bb57" d="M-541.023 1400.635a.5.5 0 0 0-.405.243l3.862 6.007a.5.5 0 0 1 0 .5.5.5 0 0 1-.434.25h-7.773l-.16.25a.5.5 0 0 0 0 .5.5.5 0 0 0 .433.25h9a.5.5 0 0 0 .434-.25.5.5 0 0 0 0-.5l-4.5-7a.5.5 0 0 0-.434-.25.5.5 0 0 0-.023 0z"></path>
    <path fill="#ed4a4b" d="M-539.805 1401.259c-.056.038-.929-.544-.997-.544-.065 0-.898.582-.95.542-.054-.042.23-1.052.209-1.116-.02-.063-.831-.675-.81-.737.024-.064 1.072-.106 1.127-.146.053-.039.385-.999.45-.997.069.002.432.986.487 1.026.053.039 1.07.057 1.088.12.019.066-.804.715-.825.78-.02.063.275 1.035.221 1.072z"></path>
    <circle cx="-542.5" cy="1404.136" r=".5" fill="#ed4a4b"></circle>
    <circle cx="-538.5" cy="1407.136" r=".5" fill="#ff9a00"></circle>
    <path fill="#d7343e" d="M-541 1398.635c-.035 0-.139.258-.242.518.102.243.204.488.23.508.053.038 1.07.058 1.088.12.02.066-.805.715-.826.78-.015.045.104.483.168.781.258.157.521.313.553.291.054-.036-.241-1.01-.221-1.072.021-.065.843-.714.824-.78-.018-.062-1.033-.081-1.086-.12-.055-.04-.42-1.023-.488-1.026zm-.525 2.456c-.028 0-.218.122-.399.236-.023.12-.068.293-.053.305.04.03.442-.234.707-.397-.094-.055-.238-.144-.255-.144z"></path>
  </g>
</svg>
