<svg xmlns="http://www.w3.org/2000/svg" width="32" height="32" id="santa">
  <path fill="#004463" stroke="#004463" stroke-linecap="round" stroke-linejoin="round" stroke-width="1.032" d="M153.91 1030.19c-5.54 0-10 4.46-10 10v1c-.554 0-1 .445-1 1v2c0 .553.446 1 1 1v9c0 4.431 3.568 8 8 8a7.983 7.983 0 0 0 7.037-4.18s0 0 0 0c.246-.453.449-.933.604-1.434 0 0 0 0 0 0 .077-.25.144-.505.197-.766 0 0 0 0 0 0a8.085 8.085 0 0 0 .162-1.615v-9c.554 0 1-.446 1-1v-2c0-.554-.446-1-1-1v-1.5c0-.146.028-.284.067-.418.008-.028.015-.056.025-.084.047-.13.108-.254.188-.365.004-.01.008-.01.011-.016.087-.117.189-.221.305-.308h.002c.121-.091.257-.164.402-.215a1.48 1.48 0 0 1 .5-.092c.831 0 1.5.669 1.5 1.5v3.885a1.5 1.5 0 0 0-.5 1.115 1.5 1.5 0 0 0 1.368 1.492 1.5 1.5 0 0 0 .132.01 1.5 1.5 0 0 0 .68-.166 1.5 1.5 0 0 0 .004 0 1.5 1.5 0 0 0 .127-.072 1.5 1.5 0 0 0 .01-.01 1.5 1.5 0 0 0 .227-.182 1.5 1.5 0 0 0 .164-.191 1.5 1.5 0 0 0 .05-.072 1.5 1.5 0 0 0 .018-.031 1.5 1.5 0 0 0 .047-.08 1.5 1.5 0 0 0 .094-.217 1.5 1.5 0 0 0 .025-.08 1.5 1.5 0 0 0 .01-.04 1.5 1.5 0 0 0 .02-.087 1.5 1.5 0 0 0 .011-.08 1.5 1.5 0 0 0 .006-.062 1.5 1.5 0 0 0 .008-.13 1.5 1.5 0 0 0-.008-.132 1.5 1.5 0 0 0-.006-.058 1.5 1.5 0 0 0-.014-.088 1.5 1.5 0 0 0-.027-.123 1.5 1.5 0 0 0-.006-.016 1.5 1.5 0 0 0-.021-.068 1.5 1.5 0 0 0-.038-.1 1.5 1.5 0 0 0-.044-.096 1.5 1.5 0 0 0-.006-.01 1.5 1.5 0 0 0-.047-.084 1.5 1.5 0 0 0-.045-.072 1.5 1.5 0 0 0-.02-.025 1.5 1.5 0 0 0-.174-.203 1.5 1.5 0 0 0-.006-.01 1.5 1.5 0 0 0-.039-.035v-3.385c0-5.54-4.46-10-10-10h-1z" transform="matrix(.96835 0 0 .96875 -132.887 -997.496)"></path>
  <g transform="matrix(.96835 0 0 .96875 .658 -987.976)">
    <path fill="#ed4a4b" d="M16 1020.362c-5.54 0-10 4.46-10 10v2h16v-2.5c0-.83.669-1.5 1.5-1.5s1.5.67 1.5 1.5v4.25h2v-3.75c0-5.54-4.46-10-10-10z"></path>
    <path fill="#eef2fa" d="M6 1031.362v13c0 4.432 3.568 8 8 8s8-3.568 8-8v-13H6z"></path>
    <rect width="12" height="11.575" x="8" y="1031.787" fill="#ffb74e" rx="1.091" ry="1.067"></rect>
    <rect width="2" height="4" x="13" y="1040.362" fill="#ffb74e" rx="1" ry="1"></rect>
    <rect width="6" height="4" x="11" y="1045.362" fill="#ffb74e" rx="1" ry="1"></rect>
    <rect width="3" height="1" x="12.5" y="1047.362" fill="#eef2fa" rx=".5" ry=".5"></rect>
    <path fill="#eef2fa" d="M13 1048.362c.184 0 .333.15.333.333v.734H14v-1.067zm2 0a.333.333 0 0 0-.333.333v.734H14v-1.067z"></path>
    <path fill="#eef2fa" d="M13 1049.362c.184 0 .333-.149.333-.333v-.734H14v1.067zm2 0a.333.333 0 0 1-.333-.333v-.734H14v1.067z"></path>
    <path fill="#d3e4f1" d="M20 1031.362v13a7.976 7.976 0 0 1-7 7.932c.328.04.66.068 1 .068 4.432 0 8-3.568 8-8v-13h-2z"></path>
    <rect width="18" height="4" x="5" y="1031.362" fill="#eef2fa" rx="1" ry="1"></rect>
    <circle cx="11" cy="1037.362" r="1" fill="#485b6a"></circle>
    <circle cx="17" cy="1037.362" r="1" fill="#485b6a"></circle>
    <path fill="#d7343e" d="M16 1020.362c5.54 0 10 4.46 10 10v3.75h1v-3.75c0-5.54-4.46-10-10-10h-1zm6.5 8c-.831 0-1.5.669-1.5 1.5v2.5h1v-2.5c0-.654.418-1.202 1-1.408a1.489 1.489 0 0 0-.5-.092Z"></path>
    <circle cx="26" cy="1034.862" r="1.5" fill="#eef2fa"></circle>
    <rect width="2" height="1" x="6" y="1035.362" fill="#d3e4f1" rx="0" ry="0"></rect>
    <rect width="2" height="1" x="20" y="1035.362" fill="#d3e4f1" rx="0" ry="0"></rect>
    <rect width="12" height="1" x="8" y="1035.362" fill="#ff9a00" rx="0" ry="0"></rect>
    <circle cx="11" cy="1037.569" r=".5" fill="#d8d7dc"></circle>
    <circle cx="16.993" cy="1037.569" r=".5" fill="#d8d7dc"></circle>
    <path fill="#d3e4f1" d="M20 1031.362c.554 0 1 .446 1 1v2c0 .554-.446 1-1 1h2c.554 0 1-.446 1-1v-2c0-.554-.446-1-1-1h-2zm6 2a1.5 1.5 0 0 0-.256.021 1.5 1.5 0 0 1 1.256 1.479 1.5 1.5 0 0 1-1.244 1.479 1.5 1.5 0 0 0 .244.021 1.5 1.5 0 0 0 1.5-1.5 1.5 1.5 0 0 0-1.5-1.5z"></path>
    <path fill="none" stroke="#fd6c63" stroke-linecap="round" stroke-linejoin="round" stroke-width="1.032" d="M15.525 1021.862c-4.446 0-8.025 3.565-8.025 7.993"></path>
  </g>
</svg>
