<svg xmlns="http://www.w3.org/2000/svg" width="32" height="32" id="sled">
  <path d="M-711 657c-.554 0-1 .446-1 1s.446 1 1 1c.277 0 .5.223.5.5v5.5a3.98 3.98 0 0 0 3 3.86V671h-5.492a.5.5 0 1 0 0 1H-689c1.65 0 3-1.35 3-3s-1.35-3-3-3h-.504a1.502 1.502 0 0 0-1.299 2.25c.268.463.764.75 1.3.75a.5.5 0 1 0 0-1 .5.5 0 1 1 0-1h.503c1.11 0 2 .89 2 2 0 1.11-.89 2-2 2h-5.5v-2c1.108 0 2-.892 2-2v-2a1 1 0 0 0 1-1 1 1 0 0 0-1-1H-693.666c-.462 0-.834.446-.834 1v1c0 .554-.446 1-1 1h-3c-.554 0-1-.446-1-1v-3c0-1.108-.892-2-2-2-.03 0-.06.01-.09.01-.018 0-.034-.01-.052-.01h-4.858c-.554 0-1-.446-1-1a2 2 0 0 0-2-2h-1.5zm4.5 12H-701.5v2h-5v-2zm6 0h5v2h-5v-2z" style="color:#000;font-style:normal;font-variant:normal;font-weight:400;font-stretch:normal;font-size:medium;line-height:normal;font-family:sans-serif;text-indent:0;text-align:start;text-decoration:none;text-decoration-line:none;text-decoration-style:solid;text-decoration-color:#000;letter-spacing:normal;word-spacing:normal;text-transform:none;direction:ltr;block-progression:tb;writing-mode:lr-tb;baseline-shift:baseline;text-anchor:start;white-space:normal;clip-rule:nonzero;display:inline;overflow:visible;visibility:visible;opacity:1;isolation:auto;mix-blend-mode:normal;color-interpolation:sRGB;color-interpolation-filters:linearRGB;solid-color:#000;solid-opacity:1;fill:#b48966;fill-opacity:1;fill-rule:nonzero;stroke:#004463;stroke-width:1;stroke-linecap:round;stroke-linejoin:round;stroke-miterlimit:4;stroke-dasharray:none;stroke-dashoffset:0;stroke-opacity:1;color-rendering:auto;image-rendering:auto;shape-rendering:auto;text-rendering:auto;enable-background:accumulate" transform="translate(716 -648.5)"></path>
  <path d="M-689.504 1688.862a1 1 0 1 1 0-2h.504a2.5 2.5 0 0 1 0 5h-23.993" style="fill:none;fill-opacity:1;stroke:#b48966;stroke-width:1;stroke-linecap:round;stroke-linejoin:round;stroke-miterlimit:4;stroke-dasharray:none;stroke-opacity:1" transform="translate(716 -1668.862)"></path>
  <path d="M20.5 1040.362v4M8.5 1040.362v4M14.5 1040.362v4" style="fill:none;fill-rule:evenodd;stroke:#b48966;stroke-width:1px;stroke-linecap:butt;stroke-linejoin:miter;stroke-opacity:1" transform="translate(.5 -1020.863)"></path>
  <path d="M4.5 9c-.554 0-1 .446-1 1s.446 1 1 1c.277 0 .5.223.5.5V17c0 2.216 1.784 4 4 4h12c1.108 0 2-.892 2-2v-2a1 1 0 0 0 1-1 1 1 0 0 0-1-1h-1.166c-.462 0-.834.446-.834 1v1c0 .554-.446 1-1 1h-3c-.554 0-1-.446-1-1v-3c0-1.108-.892-2-2-2-.03 0-.06.008-.09.01-.018-.001-.034-.01-.053-.01H9c-.554 0-1-.446-1-1a2 2 0 0 0-2-2H4.5Z" style="fill:#ed4a4b;fill-opacity:1;stroke:none;stroke-width:1;stroke-linecap:round;stroke-linejoin:round;stroke-opacity:1" transform="translate(.5 -.5)"></path>
  <path d="M4.5 9c-.554 0-1 .446-1 1s.446 1 1 1c.277 0 .5.223.5.5V17c0 2.216 1.784 4 4 4h1c-2.216 0-4-1.784-4-4v-5.5c0-.277-.223-.5-.5-.5-.554 0-1-.446-1-1s.446-1 1-1h-1zm17.334 6c-.462 0-.834.446-.834 1v1c0 .554-.446 1-1 1h1c.554 0 1-.446 1-1v-1c0-.554.372-1 .834-1h-1z" style="fill:#d7343e;fill-opacity:1;stroke:none;stroke-width:1;stroke-linecap:round;stroke-linejoin:round;stroke-opacity:1" transform="translate(.5 -.5)"></path>
</svg>
