<svg xmlns="http://www.w3.org/2000/svg" width="32" height="32" id="snowman">
  <path fill="#004463" fill-rule="evenodd" stroke="#004463" stroke-linecap="round" stroke-linejoin="round" d="M83.244 1028.19a.577.577 0 0 0-.584.573v6.428h-1a.499.499 0 1 0 0 1h1.041a4 4 0 0 0-.54 2 4 4 0 0 0 .661 2.2 1 1 0 0 0-.197 1.587c.04.04.088.067.129.105a7 7 0 0 0-2.41 2.217l-2.184-1.748v-1.861a.5.5 0 0 0-.508-.506.5.5 0 0 0-.492.506v1.06l-1.181-.945a.5.5 0 0 0-.325-.115.5.5 0 0 0-.3.894l1.38 1.106h-1.066a.5.5 0 1 0 0 1h2.299a.5.5 0 0 0 .017 0l1.866 1.492a7 7 0 0 0-.69 3.008 7 7 0 0 0 2.926 5.685 7 7 0 0 0 .004 0 7 7 0 0 0 .53.342 7 7 0 0 0 .072.045 7 7 0 0 0 .539.274 7 7 0 0 0 .086.043 7 7 0 0 0 .515.2 7 7 0 0 0 .155.058 7 7 0 0 0 .525.146 7 7 0 0 0 .14.037 7 7 0 0 0 .481.084 7 7 0 0 0 .24.035 7 7 0 0 0 .389.03 7 7 0 0 0 .398.02 7 7 0 0 0 .6-.03 7 7 0 0 0 .346-.043 7 7 0 0 0 .336-.05 7 7 0 0 0 .379-.085 7 7 0 0 0 .298-.078 7 7 0 0 0 .364-.119 7 7 0 0 0 .3-.111 7 7 0 0 0 .325-.145 7 7 0 0 0 .324-.156 7 7 0 0 0 .287-.164 7 7 0 0 0 .3-.185 7 7 0 0 0 .307-.22 7 7 0 0 0 .258-.196 7 7 0 0 0 .27-.235 7 7 0 0 0 .254-.236 7 7 0 0 0 .236-.254 7 7 0 0 0 .234-.27 7 7 0 0 0 .198-.258 7 7 0 0 0 .218-.306 7 7 0 0 0 .186-.3 7 7 0 0 0 .164-.288 7 7 0 0 0 .156-.324 7 7 0 0 0 .145-.324 7 7 0 0 0 .111-.301 7 7 0 0 0 .12-.363 7 7 0 0 0 .077-.3 7 7 0 0 0 .084-.378 7 7 0 0 0 .051-.336 7 7 0 0 0 .043-.346 7 7 0 0 0 .03-.6 7 7 0 0 0-.03-.6 7 7 0 0 0-.043-.345 7 7 0 0 0-.05-.336 7 7 0 0 0-.085-.379 7 7 0 0 0-.078-.299 7 7 0 0 0-.119-.363 7 7 0 0 0-.11-.299 7 7 0 0 0-.156-.345 7 7 0 0 0-.017-.041l1.865-1.493a.5.5 0 0 0 .016 0h2.298a.5.5 0 1 0 0-1h-1.066l1.38-1.105a.5.5 0 0 0-.315-.894.5.5 0 0 0-.31.115l-1.18.945v-1.06a.5.5 0 0 0-.509-.506.5.5 0 0 0-.492.505v1.862l-2.183 1.748a7 7 0 0 0-.198-.27 7 7 0 0 0-.2-.263 7 7 0 0 0-.235-.27 7 7 0 0 0-.236-.254 7 7 0 0 0-.254-.236 7 7 0 0 0-.27-.235 7 7 0 0 0-.258-.197 7 7 0 0 0-.306-.219 7 7 0 0 0-.301-.185 7 7 0 0 0-.063-.037c.111-.168.235-.33.383-.479a.995.995 0 0 0-.322-1.639 4 4 0 0 0 .064-.138 4 4 0 0 0 .082-.182 4 4 0 0 0 .067-.18 4 4 0 0 0 .07-.214 4 4 0 0 0 .04-.154 4 4 0 0 0 .05-.223 4 4 0 0 0 .027-.186 4 4 0 0 0 .026-.21 4 4 0 0 0 .017-.338 4 4 0 0 0-.017-.338 4 4 0 0 0-.026-.211 4 4 0 0 0-.027-.186 4 4 0 0 0-.05-.222 4 4 0 0 0-.04-.155 4 4 0 0 0-.07-.215 4 4 0 0 0-.067-.18 4 4 0 0 0-.078-.173 4 4 0 0 0-.09-.186 4 4 0 0 0-.076-.134h1.041a.499.499 0 1 0 0-1h-1v-6.428a.57.57 0 0 0-.17-.406.597.597 0 0 0-.414-.166h-5.832z" color="#000" font-family="sans-serif" font-weight="400" overflow="visible" style="line-height:normal;text-indent:0;text-align:start;text-decoration-line:none;text-decoration-style:solid;text-decoration-color:#000;text-transform:none;block-progression:tb;white-space:normal;isolation:auto;mix-blend-mode:normal;solid-color:#000;solid-opacity:1" transform="translate(-70.66 -1025.69)"></path>
  <g transform="translate(524.5 -1401.863)">
    <path fill="none" stroke="#b48966" stroke-linecap="round" stroke-linejoin="round" d="M-517.193 1419.362h-2.3m4.987 1.997-4.988-3.993m1.994 1.496v-2M-500.807 1419.362h2.3m-4.987 1.997 4.988-3.993m-1.994 1.496v-2"></path>
    <path fill="#eef2fa" d="M-502 1424.362a7 7 0 0 1-7 7 7 7 0 0 1-7-7 7 7 0 0 1 7-7 7 7 0 0 1 7 7z"></path>
    <path fill="#d3e4f1" d="M-506.926 1417.676a7 7 0 0 1 2.926 5.686 7 7 0 0 1-7 7 7 7 0 0 1-2.074-.314 7 7 0 0 0 4.074 1.314 7 7 0 0 0 7-7 7 7 0 0 0-4.926-6.686z"></path>
    <path fill="#c7c6cd" d="M-509 1417.362a7 7 0 0 0-3.22.787c.873.745 1.99 1.213 3.22 1.213 1.229 0 2.344-.467 3.217-1.209a7 7 0 0 0-3.217-.79z"></path>
    <path fill="#ed4a4b" d="M-511.84 1416.43a1 1 0 0 0-.695 1.718 4.999 4.999 0 0 0 3.535 1.463 4.999 4.999 0 0 0 3.535-1.463 1 1 0 1 0-1.414-1.414 2.996 2.996 0 0 1-2.121.877 2.996 2.996 0 0 1-2.121-.877 1 1 0 0 0-.719-.304z" color="#000" font-family="sans-serif" font-weight="400" overflow="visible" style="line-height:normal;text-indent:0;text-align:start;text-decoration-line:none;text-decoration-style:solid;text-decoration-color:#000;text-transform:none;block-progression:tb;white-space:normal;isolation:auto;mix-blend-mode:normal;solid-color:#000;solid-opacity:1"></path>
    <path fill="#d7343e" d="M-506.18 1416.427a1 1 0 0 0-.699.308c-.364.365-.816.61-1.303.748a5.777 5.777 0 0 0-.548 2.102 4.992 4.992 0 0 0 1.556-.326c.14-.85.523-1.664 1.17-2.31a.75.75 0 0 0 .006-.013c.104-.107.18-.098.277-.057.098.041.157.09.153.238a.25.25 0 0 1-.076.172.75.75 0 0 0-.008.01 3.721 3.721 0 0 0-.963 1.68c.415-.226.81-.49 1.15-.83a1 1 0 0 0-.715-1.723z" color="#000" font-family="sans-serif" font-weight="400" overflow="visible" style="line-height:normal;text-indent:0;text-align:start;text-decoration-line:none;text-decoration-style:solid;text-decoration-color:#000;text-transform:none;block-progression:tb;white-space:normal;isolation:auto;mix-blend-mode:normal;solid-color:#000;solid-opacity:1"></path>
    <circle cx="-509" cy="1420.862" r=".5" fill="#2a292e"></circle>
    <circle cx="-509" cy="1422.862" r=".5" fill="#2a292e"></circle>
    <circle cx="-509" cy="1424.862" r=".5" fill="#2a292e"></circle>
    <path fill="#ed4a4b" d="M-505.818 1416.11a1 1 0 0 0-.717.303c-1.576 1.575-1.886 3.988-.86 5.9.247.45.356.567.614.87.258.292.588.51.844.714a.35.35 0 0 0 .459-.522 4.318 4.318 0 0 1-1.227-1.236c-.26-.368.315-.741.545-.353.31.476.73.857 1.209 1.142a.325.325 0 0 0 .352-.344.324.324 0 0 0-.137-.248 3.673 3.673 0 0 1-.768-.757 2.98 2.98 0 0 1 .383-3.752 1 1 0 0 0-.697-1.717z" color="#000" font-family="sans-serif" font-weight="400" overflow="visible" style="line-height:normal;text-indent:0;text-align:start;text-decoration-line:none;text-decoration-style:solid;text-decoration-color:#000;text-transform:none;block-progression:tb;white-space:normal;isolation:auto;mix-blend-mode:normal;solid-color:#000;solid-opacity:1"></path>
    <path fill="#eef2fa" d="M-505 1414.362a4 4 0 0 1-4 4 4 4 0 0 1-4-4 4 4 0 0 1 4-4 4 4 0 0 1 4 4z"></path>
    <path fill="#d3e4f1" d="M-507.815 1410.542a4 4 0 0 1 1.672 3.249 4 4 0 0 1-4 4 4 4 0 0 1-1.185-.18 4 4 0 0 0 2.328.751 4 4 0 0 0 4-4 4 4 0 0 0-2.815-3.82z"></path>
    <rect width="7" height="8" x="-512.5" y="1404.362" fill="#485b6a" rx=".583" ry=".571"></rect>
    <circle cx="-510.5" cy="1413.862" r=".5" fill="#3c3b41"></circle>
    <circle cx="-507.5" cy="1413.862" r=".5" fill="#3c3b41"></circle>
    <rect width="7" height="1" x="-512.5" y="1410.362" fill="#003a54" rx="0" ry="0"></rect>
    <path fill="#fda816" d="M-508.333 1416.029c0 .368-.667 1.333-.667 1.333s-.667-.965-.667-1.333a.667.667 0 1 1 1.334 0z"></path>
    <path fill="#34485c" d="M-506.5 1404.362v5.428c0 .317-.26.572-.584.572h-5.416v1.428c0 .317.26.572.584.572h5.832a.577.577 0 0 0 .584-.572v-6.855a.577.577 0 0 0-.584-.573h-.416z"></path>
    <rect width="10" height="1" x="-514" y="1411.362" fill="#485b6a" rx=".5" ry=".5"></rect>
  </g>
</svg>
