<svg xmlns="http://www.w3.org/2000/svg" width="32" height="32" id="wreath">
  <path fill="#004463" stroke="#004463" stroke-linecap="round" stroke-linejoin="round" d="M51.16 1061.013a.834.834 0 0 0-.3.06.986.986 0 0 0-.7.94v.05a11.942 11.942 0 0 0-6.736 2.798l-.041-.04a.996.996 0 0 0-.707-.294.824.824 0 0 0-.281.055.98.98 0 0 0-.426.238 1 1 0 0 0 0 1.416l.04.041a11.94 11.94 0 0 0-2.798 6.737h-.05c-.555 0-1 .446-1 1s.445 1 1 1h.05a11.942 11.942 0 0 0 2.799 6.736l-.041.041a.998.998 0 0 0 0 1.414.976.976 0 0 0 .5.254c.01 0 .02 0 .031.01.09.016.177.024.268.016.046 0 .09-.016.134-.025.061-.014.12-.023.178-.049a.954.954 0 0 0 .303-.201l.043-.043c.241.204.493.397.75.582a3.863 3.863 0 0 0 1.123 2.58c.142.142.7.047 1.371-.113-.005.01-.01.014-.016.02.29-.055.643-.15 1.006-.25-.812 1.361-1.872 2.416-3.5 3.546l2.252-.424.233 1.36c2.41-1.688 3.293-2.911 3.998-4.477.172.01.343.027.517.027.175 0 .345-.02.518-.027.705 1.566 1.588 2.79 3.998 4.476l.232-1.36 2.252.425c-1.63-1.132-2.692-2.189-3.506-3.553.3.079.606.163.85.21-.003 0-.006-.01-.01-.013.749.187 1.375.305 1.527.152a3.863 3.863 0 0 0 1.123-2.578c.258-.185.51-.377.752-.582l.041.041c.062.061.136.097.207.139h.004a.98.98 0 0 0 .28.111c.017 0 .035.01.052.01a.956.956 0 0 0 .256.014c.048 0 .092-.017.139-.027.06-.014.119-.022.176-.047a.953.953 0 0 0 .302-.201.998.998 0 0 0 0-1.414l-.043-.043c.281-.332.55-.675.793-1.035 0 0 0 0 0 0a11.97 11.97 0 0 0 1.516-3.137s0 0 0 0c.117-.375.217-.757.297-1.147 0 0 0 0 0 0 .095-.46.153-.932.193-1.41h.051c.554 0 1-.446 1-1s-.446-1-1-1h-.05c-.007-.074-.005-.15-.012-.222 0 0 0 0 0 0a11.871 11.871 0 0 0-.479-2.334s0 0 0 0a11.918 11.918 0 0 0-.406-1.1s0 0 0 0a11.97 11.97 0 0 0-.506-1.047s0 0 0 0c-.37-.68-.805-1.32-1.295-1.912 0 0 0 0 0 0-.032-.038-.067-.073-.1-.111l.041-.041a1 1 0 0 0-.709-1.71.836.836 0 0 0-.283.056.965.965 0 0 0-.21.098.007.007 0 0 1-.007 0c-.07.042-.145.078-.207.138l-.04.041a11.942 11.942 0 0 0-6.737-2.799v-.049c0-.554-.446-1-1-1zm-.986 5.064a.979.979 0 0 0 .685.875.856.856 0 0 0 .301.061.99.99 0 0 0 .987-.935c1.476.179 2.82.755 3.931 1.619a.992.992 0 0 0 .031 1.367.977.977 0 0 0 .5.254c.01 0 .021 0 .032.01.09.016.176.024.267.016.046 0 .09-.016.135-.025.06-.014.12-.023.178-.05a.96.96 0 0 0 .256-.167 7.945 7.945 0 0 1 1.617 3.93.99.99 0 0 0-.934.986c0 .53.413.95.934.986a7.95 7.95 0 0 1-1.617 3.932.994.994 0 0 0-.66-.262.824.824 0 0 0-.282.055.978.978 0 0 0-.426.238.992.992 0 0 0-.033 1.366c-.12.094-.24.188-.367.275-.742.236-2.942 1.04-3.85 1.373-.116.01-.234.013-.351.017a1.98 1.98 0 0 0-.418-.047 1.98 1.98 0 0 0-.39.041c-.08 0-.16-.01-.24-.012-.902-.332-3.065-1.122-3.825-1.365a8.23 8.23 0 0 1-.281-.201l-.11-.082a.992.992 0 0 0-.74-1.658.824.824 0 0 0-.281.055.984.984 0 0 0-.38.207c-.003-.01-.007-.01-.01-.016a8.226 8.226 0 0 1-.417-.59 8.083 8.083 0 0 1-.365-.637 7.904 7.904 0 0 1-.154-.32c-.054-.117-.108-.234-.157-.354-.048-.119-.088-.241-.13-.363-.04-.114-.081-.228-.116-.344a7.994 7.994 0 0 1-.111-.435c-.023-.1-.049-.197-.069-.297a8.138 8.138 0 0 1-.08-.518l-.008-.059a.99.99 0 0 0 .934-.986.99.99 0 0 0-.934-.986l.014-.092c.021-.16.042-.32.072-.477.023-.118.054-.232.082-.348.031-.129.06-.258.098-.385.04-.132.085-.26.13-.39.037-.102.072-.205.112-.305.055-.136.114-.27.176-.402.043-.093.086-.186.133-.277a7.896 7.896 0 0 1 .363-.633c.081-.128.164-.255.252-.377.05-.07.1-.136.152-.203l.036-.043a.975.975 0 0 0 .45.222c.011 0 .022 0 .032.01.09.016.177.024.268.016.045 0 .09-.016.134-.025.06-.014.12-.023.178-.049a.954.954 0 0 0 .303-.2.992.992 0 0 0 .031-1.368c.012-.01.025-.018.037-.027a7.968 7.968 0 0 1 3.88-1.588h-.01.024z" color="#000" font-family="sans-serif" font-weight="400" overflow="visible" style="line-height:normal;text-indent:0;text-align:start;text-decoration-line:none;text-decoration-style:solid;text-decoration-color:#000;text-transform:none;block-progression:tb;white-space:normal;isolation:auto;mix-blend-mode:normal;solid-color:#000;solid-opacity:1" transform="translate(-34.66 -1059.513)"></path>
  <g transform="translate(.5 -1020.135)">
    <path fill="#91ca60" d="M16 1022.637c-6.604 0-12 5.396-12 12 0 6.603 5.396 12 12 12s12-5.397 12-12c0-6.604-5.396-12-12-12zm0 4c4.442 0 8 3.558 8 8s-3.558 8-8 8a7.97 7.97 0 0 1-8-8c0-4.442 3.558-8 8-8z" color="#000" font-family="sans-serif" font-weight="400" overflow="visible" style="line-height:normal;text-indent:0;text-align:start;text-decoration-line:none;text-decoration-style:solid;text-decoration-color:#000;text-transform:none;block-progression:tb;white-space:normal;isolation:auto;mix-blend-mode:normal;solid-color:#000;solid-opacity:1"></path>
    <path fill="#70bb57" d="M16 2.275c-.338 0-.67.022-1 .05 6.139.512 11 5.684 11 11.95 0 6.267-4.861 11.437-11 11.95.33.027.662.05 1 .05 6.604 0 12-5.396 12-12 0-6.603-5.396-12-12-12Zm-2 4a7.97 7.97 0 0 0-8 8 7.97 7.97 0 0 0 9 7.932 7.96 7.96 0 0 1-7-7.932 7.961 7.961 0 0 1 7-7.931 8.158 8.158 0 0 0-1-.069Z" color="#000" font-family="sans-serif" font-weight="400" overflow="visible" style="line-height:normal;text-indent:0;text-align:start;text-decoration-line:none;text-decoration-style:solid;text-decoration-color:#000;text-transform:none;block-progression:tb;white-space:normal;isolation:auto;mix-blend-mode:normal;solid-color:#000;solid-opacity:1" transform="translate(0 1020.362)"></path>
    <path fill="#fecb5b" d="M16 1021.637c-.554 0-1 .446-1 1v4c0 .554.446 1 1 1s1-.446 1-1v-4c0-.554-.446-1-1-1zm-8.484 3.514a1 1 0 0 0-.707 1.709l2.828 2.828a.998.998 0 0 0 1.414 0 .998.998 0 0 0 0-1.414l-2.828-2.83a.996.996 0 0 0-.707-.293Zm16.968 0a.996.996 0 0 0-.707.293l-2.828 2.83a.998.998 0 0 0 0 1.414.998.998 0 0 0 1.414 0l2.83-2.828a1 1 0 0 0-.709-1.709ZM4 1033.637c-.554 0-1 .446-1 1s.446 1 1 1h4c.554 0 1-.446 1-1s-.446-1-1-1H4zm20 0c-.554 0-1 .446-1 1s.446 1 1 1h4c.554 0 1-.446 1-1s-.446-1-1-1h-4zm-13.656 5.657a.996.996 0 0 0-.707.293l-2.828 2.828a.998.998 0 0 0 0 1.414.998.998 0 0 0 1.414 0L11.05 1041a.998.998 0 0 0-.707-1.707zm11.312 0a.998.998 0 0 0-.707 1.707l2.828 2.828a1 1 0 1 0 1.416-1.414l-2.83-2.828a.996.996 0 0 0-.707-.293Z"></path>
    <circle cx="389.31" cy="948.733" r="1" fill="#3a90cd" transform="rotate(21.215)"></circle>
    <circle cx="953.21" cy="392.642" r="1" fill="#3a90cd" transform="rotate(66.215)"></circle>
    <circle cx="953.21" cy="412.642" r="1" fill="#3a90cd" transform="rotate(66.215)"></circle>
    <circle cx="958.733" cy="-399.31" r="1" fill="#3a90cd" transform="rotate(111.215)"></circle>
    <circle cx="958.733" cy="-379.31" r="1" fill="#3a90cd" transform="rotate(111.215)"></circle>
    <circle cx="402.642" cy="-943.21" r="1" fill="#3a90cd" transform="rotate(156.215)"></circle>
    <path fill="#f8b545" d="M16 1021.637a.975.975 0 0 0-.5.153c.294.173.5.48.5.847v4a.984.984 0 0 1-.5.848c.15.088.314.152.5.152.554 0 1-.446 1-1v-4c0-.554-.446-1-1-1zm-8.484 3.514a.987.987 0 0 0-.5.156c.07.042.146.076.207.137l2.828 2.83a.998.998 0 0 1 0 1.414c-.061.061-.137.095-.207.137a.982.982 0 0 0 1.207-.137.998.998 0 0 0 0-1.414l-2.828-2.83a.996.996 0 0 0-.707-.293Zm16.968 0a.989.989 0 0 0-.5.154c.072.042.148.077.21.139a1 1 0 0 1 0 1.416l-2.83 2.828c-.062.061-.137.095-.208.137a.982.982 0 0 0 1.207-.137l2.83-2.828a1 1 0 0 0-.709-1.709ZM7 1033.637c.554 0 1 .446 1 1s-.446 1-1 1h1c.554 0 1-.446 1-1s-.446-1-1-1H7zm20 0c.554 0 1 .446 1 1s-.446 1-1 1h1c.554 0 1-.446 1-1s-.446-1-1-1h-1zm-16.656 5.657a.987.987 0 0 0-.5.156c.07.042.146.076.207.137a.998.998 0 0 1 0 1.414l-2.828 2.828c-.061.06-.137.095-.207.137a.982.982 0 0 0 1.207-.137L11.05 1041a.998.998 0 0 0-.707-1.707zm11.312 0a.987.987 0 0 0-.5.156c.071.042.146.076.207.137l2.83 2.828a.998.998 0 0 1 0 1.414c-.061.061-.137.096-.209.138a.986.986 0 0 0 1.21-.138.998.998 0 0 0 0-1.414l-2.83-2.828a.996.996 0 0 0-.708-.293Z"></path>
    <g transform="translate(2 -27.275)">
      <path fill="#ed4a4b" d="M8.139 1074.223a3.877 3.877 0 0 1-1.139-2.75c0-.995.38-1.99 1.139-2.75l5.861 1.408v2.717c-1.954.459-5.444 1.792-5.861 1.375zM19.861 1074.223a3.877 3.877 0 0 0 1.139-2.75c0-.995-.38-1.99-1.139-2.75L14 1070.131v2.717c1.954.459 5.444 1.792 5.861 1.375z"></path>
      <path fill="#d7343e" d="M11.914 1070.544a1 1 0 0 0-.9.656c-.442 1.216-.9 2.127-1.52 2.932.687-.135 1.637-.419 2.605-.713.108-.21.216-.418.313-.637l.654.246c-.018.043-.044.082-.062.125.497-.147.99-.292 1.396-.387v-1.37l-2.094-.79a1 1 0 0 0-.392-.062z" color="#000" font-family="sans-serif" font-weight="400" overflow="visible" style="line-height:normal;text-indent:0;text-align:start;text-decoration-line:none;text-decoration-style:solid;text-decoration-color:#000;text-transform:none;block-progression:tb;white-space:normal;isolation:auto;mix-blend-mode:normal;solid-color:#000;solid-opacity:1"></path>
      <path fill="#ed4a4b" d="m11.553 1071.623 2.484.935c-.89 2.302-1.501 3.668-4.553 5.804l-.232-1.36-2.252.426c2.424-1.683 3.601-3.182 4.553-5.805z" color="#000" overflow="visible" style="isolation:auto;mix-blend-mode:normal;solid-color:#000;solid-opacity:1"></path>
      <path fill="#d7343e" d="M14 1070.13s4.832.376 5.374.231a1.017 1.017 0 0 0-.526-1.964c-.542.145-4.848 1.734-4.848 1.734zM14 1070.13s-4.832.376-5.374.231a1.017 1.017 0 0 1 .526-1.964c.542.145 4.848 1.734 4.848 1.734z"></path>
      <path fill="#d7343e" d="M11.553 51.262c-.142.391-.292.751-.448 1.097a2.992 2.992 0 0 0 1.993 1.953c.312-.567.568-1.184.834-1.865h-.002a.958.958 0 0 1-.912-.635l-1.465-.55z" color="#000" font-family="sans-serif" font-weight="400" overflow="visible" style="line-height:normal;text-indent:0;text-align:start;text-decoration-line:none;text-decoration-style:solid;text-decoration-color:#000;text-transform:none;block-progression:tb;white-space:normal;isolation:auto;mix-blend-mode:normal;solid-color:#000;solid-opacity:1" transform="translate(0 1020.362)"></path>
      <path fill="#d7343e" d="M15.924 1070.497a1 1 0 0 1 .9.656c.442 1.216.9 2.127 1.52 2.932-.687-.135-1.637-.419-2.606-.713-.107-.21-.216-.418-.312-.637l-.655.246c.018.043.044.082.063.125a27.189 27.189 0 0 0-1.396-.386v-1.372l2.093-.789a1 1 0 0 1 .393-.062z" color="#000" font-family="sans-serif" font-weight="400" overflow="visible" style="line-height:normal;text-indent:0;text-align:start;text-decoration-line:none;text-decoration-style:solid;text-decoration-color:#000;text-transform:none;block-progression:tb;white-space:normal;isolation:auto;mix-blend-mode:normal;solid-color:#000;solid-opacity:1"></path>
      <path fill="#ed4a4b" d="m16.447 1071.623-2.484.935c.89 2.302 1.501 3.668 4.553 5.804l.232-1.36 2.252.426c-2.424-1.683-3.601-3.182-4.553-5.805z" color="#000" overflow="visible" style="isolation:auto;mix-blend-mode:normal;solid-color:#000;solid-opacity:1"></path>
      <path fill="#d7343e" d="m16.447 51.262-1.627.611a.949.949 0 0 1-.763.549c.264.677.52 1.287.826 1.851a3 3 0 0 0 1.93-2.09 16.483 16.483 0 0 1-.366-.921z" color="#000" font-family="sans-serif" font-weight="400" overflow="visible" style="line-height:normal;text-indent:0;text-align:start;text-decoration-line:none;text-decoration-style:solid;text-decoration-color:#000;text-transform:none;block-progression:tb;white-space:normal;isolation:auto;mix-blend-mode:normal;solid-color:#000;solid-opacity:1" transform="translate(0 1020.362)"></path>
      <path fill="#d7343e" d="M14 1070.132s-1.274.097-2.59.173c-.276.447-.45.962-.45 1.522 0 .643.216 1.236.57 1.724.881-.267 1.77-.539 2.47-.703.67.158 1.516.415 2.361.672.338-.482.54-1.066.54-1.693 0-.562-.176-1.08-.454-1.53-1.254-.075-2.447-.165-2.447-.165Zm-.07.705c.558 0 .99.431.99.99 0 .558-.432.99-.99.99a.974.974 0 0 1-.989-.99c0-.559.43-.99.989-.99z"></path>
      <circle cx="13.931" cy="1071.828" r="1.98" fill="#ed4a4b" color="#000" overflow="visible" style="isolation:auto;mix-blend-mode:normal;solid-color:#000;solid-opacity:1"></circle>
    </g>
    <path fill="#1c7bcc" d="M19.617 1024.315a1 1 0 0 0-.25.033 1 1 0 0 1 .113.035 1 1 0 0 1 .57 1.293 1 1 0 0 1-.679.606 1 1 0 0 0 1.18-.606 1 1 0 0 0-.57-1.293 1 1 0 0 0-.364-.068Zm-7.666.172a1 1 0 0 0-.23.031 1 1 0 0 1 .662.565 1 1 0 0 1-.512 1.318 1 1 0 0 1-.154.053 1 1 0 0 0 .654-.053 1 1 0 0 0 .512-1.318 1 1 0 0 0-.932-.596Zm13.184 5.117a1 1 0 0 0-.23.031 1 1 0 0 1 .661.565 1 1 0 0 1-.511 1.318 1 1 0 0 1-.155.053 1 1 0 0 0 .655-.053 1 1 0 0 0 .511-1.318 1 1 0 0 0-.931-.596zm-18.457.414a1 1 0 0 0-.25.033 1 1 0 0 1 .111.036 1 1 0 0 1 .57 1.293 1 1 0 0 1-.681.605 1 1 0 0 0 1.181-.605 1 1 0 0 0-.57-1.293 1 1 0 0 0-.361-.069Zm18.644 7.239a1 1 0 0 0-.246.03 1 1 0 0 1 .108.036 1 1 0 0 1 .57 1.295 1 1 0 0 1-.682.605 1 1 0 0 0 1.182-.605 1 1 0 0 0-.57-1.295 1 1 0 0 0-.362-.066zm-18.488.414a1 1 0 0 0-.232.03 1 1 0 0 1 .662.565 1 1 0 0 1-.512 1.319 1 1 0 0 1-.154.052 1 1 0 0 0 .654-.052 1 1 0 0 0 .512-1.319 1 1 0 0 0-.93-.595z"></path>
  </g>
</svg>
